<?xml version="1.0" standalone="no"?>
<svg viewBox="0 0 200 200" xmlns="http://www.w3.org/2000/svg">
  <path fill="#222222" d="M42.5,-73.3C52.4,-67.9,56,-51.2,61.1,-37.1C66.2,-22.9,72.7,-11.5,76.5,2.2C80.3,15.8,81.3,31.7,70.5,35.8C59.7,40,37.1,32.6,23.4,36.7C9.7,40.8,4.8,56.5,-5.2,65.6C-15.3,74.6,-30.5,76.9,-42.6,71.8C-54.6,66.8,-63.4,54.2,-59.1,41C-54.7,27.8,-37.3,13.9,-33,2.5C-28.7,-8.9,-37.6,-17.9,-37.1,-22.7C-36.6,-27.5,-26.6,-28.2,-18.9,-34.9C-11.1,-41.5,-5.5,-54.2,5.4,-63.5C16.3,-72.8,32.6,-78.7,42.5,-73.3Z" transform="translate(100 100)" />
</svg>
